<?xml version="1.0" encoding="utf-8"?>
<svg id="master-artboard" viewBox="0 0 809.2575073242188 958.8179931640625" version="1.1" xmlns="http://www.w3.org/2000/svg" x="0px" y="0px" style="enable-background:new 0 0 336 235.2;" width="290.519495139" height="344.21097955"><rect id="ee-background" x="0" y="0" width="809.2575073242188" height="958.8179931640625" style="fill: white; fill-opacity: 100; pointer-events: none;"/><title>NHS white</title><path class="cls-1" d="M37,46.72c-3.78-4.7-2.91-10.05,1.24-13.83,1.69-1.55,3.95-3.52,2.66-6.38a5,5,0,0,1,2.4,5.65,8.2,8.2,0,0,0-6,10.13,8.63,8.63,0,0,1,4.93-9,22.87,22.87,0,0,1,4.95-1.12c2.45-.27,3.85-1.75,3.07-3.78,2.55,2.16,1.61,6.06-1,8.12C47,38.34,44.35,38.12,42.91,42A7.77,7.77,0,0,1,48,38.82c1.6-.25,4.26-1.34,4-3.55,2.32,2.88.93,7.08-3.41,7.92-1.25.24-7.61-.11-7.17,5.74.42-1,1-2.93,2.53-3.22,2.21-.42,2-.42,2.65-1.82.64,4.81-3.81,7.28-7,5.08Z" style="fill: rgb(0, 0, 0);" transform="matrix(8.985879898071289, 0, 0, 8.985879898071289, 8.640106201171875, 0)"/><path d="M 33.47999954223633 51.13999938964844 L 54.029998779296875 51.13999938964844 L 51.06999969482422 55.029998779296875 L 36.45000076293945 55.029998779296875 L 33.47999954223633 51.13999938964844 Z" class="cls-1" style="fill: rgb(0, 0, 0);" transform="matrix(8.985879898071289, 0, 0, 8.985879898071289, 8.640106201171875, 0)"/><path class="cls-1" d="M28.27,16.19H27.19l-2.08-3.61h0v3.61h-1V10.81h1.37L27.28,14h0V10.81h1Z" style="fill: rgb(0, 0, 0);" transform="matrix(8.985879898071289, 0, 0, 8.985879898071289, 8.640106201171875, 0)"/><path class="cls-1" d="M34.18,16.19H32.81l-.33-1.11H30.72l-.34,1.11H29.27L31,10.81h1.47Zm-2-2.09-.58-1.89L31,14.1Z" style="fill: rgb(0, 0, 0);" transform="matrix(8.985879898071289, 0, 0, 8.985879898071289, 8.640106201171875, 0)"/><path class="cls-1" d="M38.77,11.88H37.42v4.31H36.15V11.88H34.78V10.81h4Z" style="fill: rgb(0, 0, 0);" transform="matrix(8.985879898071289, 0, 0, 8.985879898071289, 8.640106201171875, 0)"/><path class="cls-1" d="M41.12,16.19H39.86V10.81h1.26Z" style="fill: rgb(0, 0, 0);" transform="matrix(8.985879898071289, 0, 0, 8.985879898071289, 8.640106201171875, 0)"/><path class="cls-1" d="M42.94,15.42a3.3,3.3,0,0,1-.57-1.93c0-1.43.72-2.76,2.32-2.76a2,2,0,0,1,1.73.82A3.43,3.43,0,0,1,47,13.49a3.53,3.53,0,0,1-.52,1.87,2.08,2.08,0,0,1-1.79.91A2,2,0,0,1,42.94,15.42Zm.93-3a3.52,3.52,0,0,0-.17,1.12c0,.67.11,1.75,1,1.75a.79.79,0,0,0,.82-.61,3.6,3.6,0,0,0,.16-1.13,3.31,3.31,0,0,0-.19-1.22.77.77,0,0,0-.79-.52A.82.82,0,0,0,43.86,12.37Z" style="fill: rgb(0, 0, 0);" transform="matrix(8.985879898071289, 0, 0, 8.985879898071289, 8.640106201171875, 0)"/><path class="cls-1" d="M52.38,16.19H51.3l-2.08-3.61h0v3.61h-1V10.81h1.37L51.38,14h0V10.81h1Z" style="fill: rgb(0, 0, 0);" transform="matrix(8.985879898071289, 0, 0, 8.985879898071289, 8.640106201171875, 0)"/><path class="cls-1" d="M58.29,16.19H56.92l-.33-1.11H54.83l-.34,1.11H53.38l1.74-5.38h1.47Zm-2-2.09-.57-1.89-.58,1.89Z" style="fill: rgb(0, 0, 0);" transform="matrix(8.985879898071289, 0, 0, 8.985879898071289, 8.640106201171875, 0)"/><path class="cls-1" d="M62.69,15.12v1.07H59.24V10.81h1.27v4.31Z" style="fill: rgb(0, 0, 0);" transform="matrix(8.985879898071289, 0, 0, 8.985879898071289, 8.640106201171875, 0)"/><path class="cls-1" d="M15.68,23.87H14.42V21.65H12.74v2.22H11.48V18.49h1.26v2.1h1.68v-2.1h1.26Z" style="fill: rgb(0, 0, 0);" transform="matrix(8.985879898071289, 0, 0, 8.985879898071289, 8.640106201171875, 0)"/><path class="cls-1" d="M17.45,23.1a3.3,3.3,0,0,1-.57-1.93c0-1.43.71-2.76,2.32-2.76a2,2,0,0,1,1.73.82,3.46,3.46,0,0,1,.58,1.94A3.54,3.54,0,0,1,21,23a2.09,2.09,0,0,1-1.8.91A2,2,0,0,1,17.45,23.1Zm.92-3a3.44,3.44,0,0,0-.17,1.12c0,.67.1,1.75,1,1.75a.79.79,0,0,0,.81-.61,3.39,3.39,0,0,0,.17-1.13A3.27,3.27,0,0,0,20,20a.77.77,0,0,0-.79-.52A.82.82,0,0,0,18.37,20.06Z" style="fill: rgb(0, 0, 0);" transform="matrix(8.985879898071289, 0, 0, 8.985879898071289, 8.640106201171875, 0)"/><path class="cls-1" d="M26.89,23.87H25.8l-2.08-3.62h0v3.62h-1V18.49h1.36l1.81,3.16h0V18.49h1Z" style="fill: rgb(0, 0, 0);" transform="matrix(8.985879898071289, 0, 0, 8.985879898071289, 8.640106201171875, 0)"/><path class="cls-1" d="M28.67,23.1a3.34,3.34,0,0,1-.57-1.93c0-1.43.72-2.76,2.32-2.76a2,2,0,0,1,1.72.82,3.43,3.43,0,0,1,.59,1.94A3.51,3.51,0,0,1,32.22,23a2.09,2.09,0,0,1-1.79.91A2,2,0,0,1,28.67,23.1Zm.94-3a3.3,3.3,0,0,0-.18,1.12c0,.67.1,1.75,1,1.75a.79.79,0,0,0,.81-.61,3.38,3.38,0,0,0,.17-1.13A3.18,3.18,0,0,0,31.2,20a.76.76,0,0,0-.78-.52A.81.81,0,0,0,29.6,20.06Z" style="fill: rgb(0, 0, 0);" transform="matrix(8.985879898071289, 0, 0, 8.985879898071289, 8.640106201171875, 0)"/><path class="cls-1" d="M35.23,23.87H34V18.49h2.29a2.5,2.5,0,0,1,1.39.28,1.61,1.61,0,0,1,.69,1.34,1.45,1.45,0,0,1-.94,1.39l1,2.38H37l-.84-2.13h-.92Zm0-3h.69a1.57,1.57,0,0,0,.78-.11A.73.73,0,0,0,37,20.1a.68.68,0,0,0-.31-.55,1.71,1.71,0,0,0-.81-.1h-.66Z" style="fill: rgb(0, 0, 0);" transform="matrix(8.985879898071289, 0, 0, 8.985879898071289, 8.640106201171875, 0)"/><path class="cls-1" d="M45.06,20a.87.87,0,0,0-.93-.64c-.34,0-.75.09-.75.5s.47.49.78.54a4.37,4.37,0,0,1,1.42.45,1.5,1.5,0,0,1,.71,1.27,1.7,1.7,0,0,1-.67,1.35A2.54,2.54,0,0,1,44,24a2,2,0,0,1-2.19-1.49L43,22.19a1,1,0,0,0,1.14.76c.36,0,.85-.13.85-.58s-.62-.53-1-.6c-1-.2-1.91-.48-1.91-1.66a1.6,1.6,0,0,1,.58-1.26,2.06,2.06,0,0,1,1.36-.44,2,2,0,0,1,2.06,1.26Z" style="fill: rgb(0, 0, 0);" transform="matrix(8.985879898071289, 0, 0, 8.985879898071289, 8.640106201171875, 0)"/><path class="cls-1" d="M47.8,23.1a3.31,3.31,0,0,1-.58-1.93c0-1.43.72-2.76,2.33-2.76a2,2,0,0,1,1.72.82,3.46,3.46,0,0,1,.58,1.94A3.5,3.5,0,0,1,51.35,23a2.09,2.09,0,0,1-1.79.91A2,2,0,0,1,47.8,23.1Zm.93-3a3.53,3.53,0,0,0-.17,1.12c0,.67.1,1.75,1,1.75a.79.79,0,0,0,.81-.61,3.24,3.24,0,0,0,.17-1.13A3.23,3.23,0,0,0,50.34,20a.77.77,0,0,0-.78-.52A.82.82,0,0,0,48.73,20.06Z" style="fill: rgb(0, 0, 0);" transform="matrix(8.985879898071289, 0, 0, 8.985879898071289, 8.640106201171875, 0)"/><path class="cls-1" d="M56.13,20.58c0-.6-.21-1.15-.91-1.15-.89,0-1,1.16-1,1.81s.09,1.68,1,1.68c.59,0,.87-.5.94-1l1.23.08a2.09,2.09,0,0,1-2.24,2c-1.61,0-2.39-1.3-2.39-2.77s.8-2.77,2.43-2.77a2,2,0,0,1,2.2,2.08Z" style="fill: rgb(0, 0, 0);" transform="matrix(8.985879898071289, 0, 0, 8.985879898071289, 8.640106201171875, 0)"/><path class="cls-1" d="M60,23.87H58.71V18.49H60Z" style="fill: rgb(0, 0, 0);" transform="matrix(8.985879898071289, 0, 0, 8.985879898071289, 8.640106201171875, 0)"/><path class="cls-1" d="M62.71,19.53v1.09h2.06v1H62.71v1.2h2.61v1H61.45V18.49h3.87v1Z" style="fill: rgb(0, 0, 0);" transform="matrix(8.985879898071289, 0, 0, 8.985879898071289, 8.640106201171875, 0)"/><path class="cls-1" d="M70,19.56H68.68v4.31H67.42V19.56H66V18.49h4Z" style="fill: rgb(0, 0, 0);" transform="matrix(8.985879898071289, 0, 0, 8.985879898071289, 8.640106201171875, 0)"/><path class="cls-1" d="M73.61,21.61v2.26H72.35V21.61l-1.72-3.12H72.1l1,2,1-2h1.14Z" style="fill: rgb(0, 0, 0);" transform="matrix(8.985879898071289, 0, 0, 8.985879898071289, 8.640106201171875, 0)"/><path class="cls-1" d="M71.89,12.69,78.74,0H9l6.68,13H0L17.41,95.73H70.49l16.86-83ZM67.67,92.12H20.39l-16.52-76H21.09L14.24,3.26H73.12L66.62,16h16.7Z" style="fill: rgb(0, 0, 0);" transform="matrix(8.985879898071289, 0, 0, 8.985879898071289, 8.640106201171875, 0)"/><path class="cls-1" d="M41.31,104.07s-.08.48.32.5c1,.07,3.64.14,3.84-.15s5-48.22,5-48.22H36.93Z" style="fill: rgb(0, 0, 0);" transform="matrix(8.985879898071289, 0, 0, 8.985879898071289, 8.640106201171875, 0)"/><path d="M 26.1299991607666 70.58000183105469 L 24.18000030517578 72.75 L 21.610000610351562 70.19000244140625 L 23.079999923706055 78.0199966430664 L 25.389999389648438 74.43000030517578 L 27.600000381469727 76.48999786376953 L 21.739999771118164 86.5 L 16.3700008392334 59.65999984741211 L 26.1299991607666 70.58000183105469 Z" class="cls-1" style="fill: rgb(0, 0, 0);" transform="matrix(8.985879898071289, 0, 0, 8.985879898071289, 8.640106201171875, 0)"/><path d="M 35.470001220703125 75.0199966430664 L 31.440000534057617 75.0199966430664 L 27.40999984741211 83.33000183105469 L 33.63999938964844 83.33000183105469 L 33.63999938964844 87.58999633789062 L 28.75 87.58999633789062 L 29.489999771118164 85.2699966430664 L 26.43000030517578 85.02999877929688 L 24.1200008392334 89.80000305175781 L 36.810001373291016 89.80000305175781 L 35.959999084472656 81.25 L 31.93000030517578 81.12000274658203 L 32.790000915527344 78.31999969482422 L 35.709999084472656 78.31999969482422 L 35.470001220703125 75.0199966430664 Z" class="cls-1" style="fill: rgb(0, 0, 0);" transform="matrix(8.985879898071289, 0, 0, 8.985879898071289, 8.640106201171875, 0)"/><path d="M 51.15999984741211 75.0199966430664 L 54.20000076293945 75.0199966430664 L 54.20000076293945 87.3499984741211 L 59.040000915527344 87.3499984741211 L 58.02000045776367 85.16000366210938 L 61.06999969482422 85.16000366210938 L 63.47999954223633 89.91999816894531 L 50.779998779296875 89.91999816894531 L 51.15999984741211 75.0199966430664 Z" class="cls-1" style="fill: rgb(0, 0, 0);" transform="matrix(8.985879898071289, 0, 0, 8.985879898071289, 8.640106201171875, 0)"/><path d="M 63.27000045776367 77 L 60.540000915527344 77 L 66.23999786376953 87.19999694824219 L 69.19000244140625 71.83999633789062 L 63.95000076293945 71.83999633789062 L 67.70999908447266 67.4800033569336 L 67.48999786376953 69.88999938964844 L 69.63999938964844 69.88999938964844 L 71.69000244140625 59.45000076293945 L 58.84000015258789 74.0199966430664 L 66.11000061035156 74.0199966430664 L 65.08999633789062 79.63999938964844 L 63.27000045776367 77 Z" class="cls-1" style="fill: rgb(0, 0, 0);" transform="matrix(8.985879898071289, 0, 0, 8.985879898071289, 8.640106201171875, 0)"/><path d="M 47.249999 105.25 A 3.81 3.81 0 0 1 43.439999 109.06 A 3.81 3.81 0 0 1 39.629999 105.25 A 3.81 3.81 0 0 1 43.439999 101.44 A 3.81 3.81 0 0 1 47.249999 105.25 Z" class="cls-1" style="fill: rgb(0, 0, 0);" transform="matrix(8.985879898071289, 0, 0, 8.985879898071289, 8.640106201171875, 0)"/><path class="cls-1" d="M68,99.39a2,2,0,1,1-2-2A2,2,0,0,1,68,99.39Zm-3.54,0A1.53,1.53,0,0,0,65.95,101a1.51,1.51,0,0,0,1.5-1.56,1.52,1.52,0,1,0-3,0Zm1.21,1h-.46v-2a5.25,5.25,0,0,1,.76-.06,1.05,1.05,0,0,1,.67.16.5.5,0,0,1,.2.42.51.51,0,0,1-.41.47v0c.19.06.29.21.35.48a1.78,1.78,0,0,0,.14.48H66.4a1.56,1.56,0,0,1-.16-.48c0-.2-.16-.3-.41-.3h-.22Zm0-1.1h.22c.25,0,.46-.08.46-.29s-.13-.3-.42-.3a1,1,0,0,0-.25,0Z" style="fill: rgb(0, 0, 0);" transform="matrix(8.985879898071289, 0, 0, 8.985879898071289, 8.640106201171875, 0)"/></svg>
